<svg preserveAspectRatio="none" width="100%" height="100%" overflow="visible" style="display: block;" viewBox="0 0 35.6509 35.5129" fill="none" xmlns="http://www.w3.org/2000/svg">
<g id="Group 117">
<path id="Vector" d="M5.9728 0.0433141C5.98974 0.0409426 6.00668 0.0386134 6.02358 0.0362419C7.2954 -0.00919821 8.61714 0.0226478 9.89027 0.0259934L17.5932 0.0301858L25.6499 0.0190484C29.0201 0.0168887 32.1509 -0.395363 34.378 2.73085C35.3317 4.06957 35.6243 5.45357 35.6366 7.0715C35.647 8.4555 35.644 9.8359 35.6423 11.2173L35.6363 19.7719L35.6509 25.9927C35.6499 27.2616 35.6616 28.5032 35.5319 29.7686C35.2441 32.5757 32.6268 35.2463 29.7575 35.4216C29.6853 35.4325 29.6127 35.4416 29.5401 35.449C28.3132 35.5684 26.608 35.4852 25.3482 35.4772L18.6231 35.4703L10.2981 35.4649C8.81902 35.461 7.10788 35.5091 5.65066 35.3448C4.46888 35.1886 3.37133 34.7364 2.46663 33.9529C1.12879 32.7943 0.205677 31.0248 0.100102 29.2554C0.00308069 27.6294 0.0226461 26.0408 0.0242553 24.4257L0.0330635 16.3592L0.0235775 9.81819C0.0183686 7.02242 -0.304709 4.61845 1.6125 2.30842C2.70264 0.998276 4.27411 0.181921 5.9728 0.0433141Z" fill="var(--fill-0, #A10140)"/>
<path id="Vector_2" d="M6.22996 3.59366C6.95564 3.51963 8.62198 3.57198 9.43186 3.5746L15.3791 3.58197L25.1594 3.6056C26.5363 3.61488 27.9113 3.60386 29.2887 3.62559C30.5356 3.64528 31.7948 4.66046 31.9547 5.91598C32.0819 6.91511 32.0425 7.98848 32.0417 8.99887L32.0424 12.4619L32.0588 25.3562C32.0682 26.2812 31.9504 28.489 32.1569 29.2355C30.895 27.501 30.3844 26.2991 28.5412 25.083C26.2679 23.7663 24.2486 23.9122 21.725 23.9038L16.5486 23.9039L12.9387 23.9041C11.8808 23.9041 10.6607 23.8617 9.63157 24.077C6.42696 24.7472 5.26178 26.5648 3.57812 29.0592C3.62001 27.0263 3.63178 24.9929 3.6134 22.9596L3.58977 12.8182L3.58761 8.82948C3.58748 8.03963 3.55661 7.1642 3.64101 6.38202C3.7958 4.94691 4.78481 3.82459 6.22996 3.59366Z" fill="var(--fill-0, white)"/>
<path id="Vector_3" d="M17.0583 5.56618C21.564 5.13498 25.5666 8.43695 25.9997 12.9425C26.4329 17.448 23.1327 21.4521 18.6273 21.8871C14.1192 22.3224 10.1122 19.0198 9.67882 14.5115C9.24543 10.0032 12.5499 5.99762 17.0583 5.56618Z" fill="var(--fill-0, #A10140)"/>
<path id="Vector_4" d="M17.3387 9.12646C19.8714 8.8473 22.1524 10.6699 22.4391 13.2017C22.7258 15.7335 20.9099 18.02 18.379 18.3142C15.8374 18.6096 13.5392 16.7845 13.2513 14.242C12.9635 11.6996 14.7954 9.40681 17.3387 9.12646Z" fill="var(--fill-0, white)"/>
<path id="Vector_5" d="M11.414 27.4446C13.9784 27.3674 16.8448 27.4443 19.4317 27.4431L22.9002 27.4436C24.0447 27.4469 25.0024 27.3184 26.0638 27.8264C27.955 28.7315 28.3804 29.9576 28.9913 31.8361C27.7069 31.9344 25.6835 31.8927 24.3319 31.9054L12.9226 31.9088L9.11126 31.8765C8.35343 31.8723 7.47427 31.8535 6.72754 31.9147C7.08534 29.5231 8.9262 27.5301 11.414 27.4446Z" fill="var(--fill-0, white)"/>
</g>
</svg>
